/vscmnt/brussel_pixiu_data/_data_brussel/112/vsc11236/PredSimResults/SUBJ10opt3D/weighted-trackIG/worker_02.mot
version=1
nRows=8
nColumns=50
inDegrees=yes
endheader
                time	         pelvis_tilt	         pelvis_list	     pelvis_rotation	           pelvis_tx	           pelvis_ty	           pelvis_tz	       hip_flexion_r	     hip_adduction_r	      hip_rotation_r	        knee_angle_r	       ankle_angle_r	         mtp_angle_r	       hip_flexion_l	     hip_adduction_l	      hip_rotation_l	        knee_angle_l	       ankle_angle_l	         mtp_angle_l	    lumbar_extension	      lumbar_bending	     lumbar_rotation	 ercspn_r/activation	 intobl_r/activation	 extobl_r/activation	    abd_r/activation	    add_r/activation	hamstrings_r/activation	bifemsh_r/activation	glut_max_r/activation	iliopsoas_r/activation	rect_fem_r/activation	  vasti_r/activation	gastroc_r/activation	 soleus_r/activation	tib_ant_r/activation	 ercspn_l/activation	 intobl_l/activation	 extobl_l/activation	    abd_l/activation	    add_l/activation	hamstrings_l/activation	bifemsh_l/activation	glut_max_l/activation	iliopsoas_l/activation	rect_fem_l/activation	  vasti_l/activation	gastroc_l/activation	 soleus_l/activation	tib_ant_l/activation	
          1.72331561	         -4.12709067	          0.90684107	         -6.73258655	          1.94734664	          0.82319513	          0.01280728	        -15.55116640	         -0.62800489	         -0.50601649	         -6.56314410	          8.72848381	         26.57774996	         30.52274771	         -1.41087361	         -5.68207828	         -7.77678332	          2.99279866	          0.26331130	         -6.29754002	          0.45929914	          6.92328295	          0.09490561	          0.00999999	          0.00999999	          0.05743093	          0.01000000	          0.01141114	          0.21314381	          0.01494306	          0.42145125	          0.01000000	          0.00999999	          0.31209435	          0.25829869	          0.02308561	          0.10791010	          0.14761491	          0.00999999	          0.00999999	          0.20837665	          0.10955162	          0.19965585	          0.05572391	          0.09558244	          0.01000000	          0.00999999	          0.01691470	          0.01325308	          0.28911240	
          1.73480438	         -4.16347169	          0.89038427	         -6.83630993	          1.96287441	          0.82183212	          0.01247302	        -15.57024830	         -0.76661558	         -0.82497415	         -8.39623262	          8.08670920	         28.26906103	         30.37683211	         -1.28098682	         -5.31478023	         -9.35655477	          2.64582321	          0.24950373	         -6.05843863	         -0.02773633	          7.24748446	          0.11113983	          0.00999999	          0.00999999	          0.04820135	          0.01678257	          0.02047977	          0.17889004	          0.01254160	          0.35372094	          0.00999999	          0.00999999	          0.27392667	          0.24742366	          0.01937558	          0.09056815	          0.12389211	          0.00999999	          0.01000000	          0.17488899	          0.09510928	          0.16756970	          0.10037406	          0.08022164	          0.00999999	          0.00999999	          0.01419639	          0.01112322	          0.35719817	
          1.74629316	         -4.19092798	          0.89141483	         -6.90168800	          1.97864078	          0.82076483	          0.01201269	        -15.43855093	         -0.93729794	         -1.16865013	        -10.51577738	          7.27327492	         29.92644972	         30.07069115	         -1.14052644	         -5.00830542	        -10.66197801	          2.18283588	          0.24065996	         -5.80245890	         -0.52976315	          7.54083872	          0.12365555	          0.00999999	          0.00999999	          0.04045504	          0.01408549	          0.01718857	          0.15014109	          0.01052607	          0.29687538	          0.00999999	          0.00999999	          0.22990464	          0.23051243	          0.01626178	          0.10342344	          0.10398174	          0.00999999	          0.05499364	          0.17104718	          0.08295927	          0.14064002	          0.11335394	          0.06732943	          0.00999999	          0.00999999	          0.01191492	          0.00999999	          0.41452627	
          1.75778193	         -4.21020025	          0.88996842	         -6.92859120	          1.99444393	          0.82009419	          0.01143272	        -15.10754101	         -1.11914537	         -1.53948371	        -12.97414642	          6.27388572	         31.45364850	         29.70992354	         -1.00036943	         -4.80918876	        -11.88312192	          1.71616871	          0.22763846	         -5.55270149	         -1.02408509	          7.79824196	          0.14995531	          0.00999999	          0.00999999	          0.03395362	          0.01182185	          0.01685113	          0.12601232	          0.01000000	          0.24916533	          0.00999999	          0.00999999	          0.19295727	          0.21147184	          0.01364839	          0.10645142	          0.08727111	          0.00999999	          0.09412303	          0.20841101	          0.07124923	          0.11803813	          0.11839275	          0.05650910	          0.00999999	          0.01000000	          0.01000011	          0.00999999	          0.44635661	
          1.76927070	         -4.22141979	          0.88813236	         -6.92046387	          2.01013990	          0.81988679	          0.01074760	        -14.54425547	         -1.31649828	         -1.94228975	        -15.80053314	          5.10658219	         32.68588974	         29.36169150	         -0.86108204	         -4.70004735	        -13.14725861	          1.38367866	          0.21457571	         -5.32063743	         -1.51183961	          8.01833367	          0.17308593	          0.00999999	          0.00999999	          0.02849702	          0.06790369	          0.02910594	          0.10576121	          0.00999999	          0.20912263	          0.00999999	          0.00999999	          0.16194762	          0.18172142	          0.01145500	          0.10491153	          0.07324600	          0.00999999	          0.12305253	          0.23208154	          0.06734435	          0.09906854	          0.11690821	          0.04742767	          0.00999999	          0.04161436	          0.00999999	          0.00999999	          0.46219162	
          1.78075947	         -4.22623705	          0.88404597	         -6.87848137	          2.02561701	          0.82022596	          0.00998269	        -13.71999730	         -1.52854738	         -2.39812550	        -19.01470164	          3.80107245	         33.39316448	         29.01225896	         -0.72376245	         -4.65827107	        -14.41717295	          1.24560506	          0.19967110	         -5.11362447	         -1.99041660	          8.20013097	          0.18683372	          0.00999999	          0.00999999	          0.02391734	          0.14189549	          0.03685784	          0.08876461	          0.00999999	          0.17551509	          0.00999999	          0.00999999	          0.13592145	          0.15251745	          0.00999999	          0.09936769	          0.06147483	          0.00999999	          0.13955459	          0.24918357	          0.06714649	          0.08314750	          0.10630990	          0.03980570	          0.00999999	          0.08228088	          0.00999999	          0.00999999	          0.45689831	
          1.79224824	         -4.22671669	          0.87215174	         -6.80292213	          2.04080659	          0.82116065	          0.00916656	        -12.61646586	         -1.75576332	         -2.92289636	        -22.62404480	          2.38038329	         33.36240260	         28.60739007	         -0.58717520	         -4.65104034	        -15.59615780	          1.36446027	          0.18908318	         -4.93575615	         -2.45423561	          8.34251669	          0.19097470	          0.00999999	          0.00999999	          0.02007365	          0.20259732	          0.03939628	          0.07449949	          0.00999999	          0.14730852	          0.00999999	          0.00999999	          0.11407787	          0.12800678	          0.00999999	          0.09427054	          0.05159537	          0.00999999	          0.14869884	          0.25522245	          0.06927003	          0.06978509	          0.09344077	          0.03340863	          0.00999999	          0.11005476	          0.00999999	          0.00999999	          0.42139532	
          1.80373701	         -4.22472463	          0.84516709	         -6.69352097	          2.05567070	          0.82267752	          0.00832646	        -11.23863267	         -1.99884880	         -3.50329475	        -26.56548502	          0.72667660	         32.62898522	         28.09734412	         -0.45104665	         -4.63914442	        -16.59080954	          1.75205161	          0.20195920	         -4.78958684	         -2.89682401	          8.44381194	          0.19143672	          0.00999999	          0.00999999	          0.01684767	          0.27000551	          0.04737493	          0.06252688	          0.00999999	          0.12363496	          0.00999999	          0.00999999	          0.09574472	          0.10743515	          0.00999999	          0.08158576	          0.04330362	          0.00999999	          0.15017873	          0.24585876	          0.07134666	          0.05857011	          0.07842416	          0.02803962	          0.00999999	          0.14290937	          0.00999999	          0.00999999	          0.36672202	
